<svg class="lds-spinner" width="180px"  height="180px"  xmlns="http://www.w3.org/2000/svg" xmlns:xlink="http://www.w3.org/1999/xlink" viewBox="0 0 100 100" preserveAspectRatio="xMidYMid" style="background: none;"><g transform="rotate(0 50 50)">
  <rect x="47.5" y="8" rx="14.25" ry="2.4" width="5" height="12" fill="#1846e5">
    <animate attributeName="opacity" values="1;0" keyTimes="0;1" dur="0.6s" begin="-0.5714285714285714s" repeatCount="indefinite"></animate>
  </rect>
</g><g transform="rotate(17.142857142857142 50 50)">
  <rect x="47.5" y="8" rx="14.25" ry="2.4" width="5" height="12" fill="#1846e5">
    <animate attributeName="opacity" values="1;0" keyTimes="0;1" dur="0.6s" begin="-0.5428571428571429s" repeatCount="indefinite"></animate>
  </rect>
</g><g transform="rotate(34.285714285714285 50 50)">
  <rect x="47.5" y="8" rx="14.25" ry="2.4" width="5" height="12" fill="#1846e5">
    <animate attributeName="opacity" values="1;0" keyTimes="0;1" dur="0.6s" begin="-0.5142857142857142s" repeatCount="indefinite"></animate>
  </rect>
</g><g transform="rotate(51.42857142857143 50 50)">
  <rect x="47.5" y="8" rx="14.25" ry="2.4" width="5" height="12" fill="#1846e5">
    <animate attributeName="opacity" values="1;0" keyTimes="0;1" dur="0.6s" begin="-0.48571428571428565s" repeatCount="indefinite"></animate>
  </rect>
</g><g transform="rotate(68.57142857142857 50 50)">
  <rect x="47.5" y="8" rx="14.25" ry="2.4" width="5" height="12" fill="#1846e5">
    <animate attributeName="opacity" values="1;0" keyTimes="0;1" dur="0.6s" begin="-0.45714285714285713s" repeatCount="indefinite"></animate>
  </rect>
</g><g transform="rotate(85.71428571428571 50 50)">
  <rect x="47.5" y="8" rx="14.25" ry="2.4" width="5" height="12" fill="#1846e5">
    <animate attributeName="opacity" values="1;0" keyTimes="0;1" dur="0.6s" begin="-0.42857142857142855s" repeatCount="indefinite"></animate>
  </rect>
</g><g transform="rotate(102.85714285714286 50 50)">
  <rect x="47.5" y="8" rx="14.25" ry="2.4" width="5" height="12" fill="#1846e5">
    <animate attributeName="opacity" values="1;0" keyTimes="0;1" dur="0.6s" begin="-0.4s" repeatCount="indefinite"></animate>
  </rect>
</g><g transform="rotate(120 50 50)">
  <rect x="47.5" y="8" rx="14.25" ry="2.4" width="5" height="12" fill="#1846e5">
    <animate attributeName="opacity" values="1;0" keyTimes="0;1" dur="0.6s" begin="-0.37142857142857144s" repeatCount="indefinite"></animate>
  </rect>
</g><g transform="rotate(137.14285714285714 50 50)">
  <rect x="47.5" y="8" rx="14.25" ry="2.4" width="5" height="12" fill="#1846e5">
    <animate attributeName="opacity" values="1;0" keyTimes="0;1" dur="0.6s" begin="-0.3428571428571428s" repeatCount="indefinite"></animate>
  </rect>
</g><g transform="rotate(154.28571428571428 50 50)">
  <rect x="47.5" y="8" rx="14.25" ry="2.4" width="5" height="12" fill="#1846e5">
    <animate attributeName="opacity" values="1;0" keyTimes="0;1" dur="0.6s" begin="-0.3142857142857143s" repeatCount="indefinite"></animate>
  </rect>
</g><g transform="rotate(171.42857142857142 50 50)">
  <rect x="47.5" y="8" rx="14.25" ry="2.4" width="5" height="12" fill="#1846e5">
    <animate attributeName="opacity" values="1;0" keyTimes="0;1" dur="0.6s" begin="-0.2857142857142857s" repeatCount="indefinite"></animate>
  </rect>
</g><g transform="rotate(188.57142857142858 50 50)">
  <rect x="47.5" y="8" rx="14.25" ry="2.4" width="5" height="12" fill="#1846e5">
    <animate attributeName="opacity" values="1;0" keyTimes="0;1" dur="0.6s" begin="-0.2571428571428571s" repeatCount="indefinite"></animate>
  </rect>
</g><g transform="rotate(205.71428571428572 50 50)">
  <rect x="47.5" y="8" rx="14.25" ry="2.4" width="5" height="12" fill="#1846e5">
    <animate attributeName="opacity" values="1;0" keyTimes="0;1" dur="0.6s" begin="-0.22857142857142856s" repeatCount="indefinite"></animate>
  </rect>
</g><g transform="rotate(222.85714285714286 50 50)">
  <rect x="47.5" y="8" rx="14.25" ry="2.4" width="5" height="12" fill="#1846e5">
    <animate attributeName="opacity" values="1;0" keyTimes="0;1" dur="0.6s" begin="-0.2s" repeatCount="indefinite"></animate>
  </rect>
</g><g transform="rotate(240 50 50)">
  <rect x="47.5" y="8" rx="14.25" ry="2.4" width="5" height="12" fill="#1846e5">
    <animate attributeName="opacity" values="1;0" keyTimes="0;1" dur="0.6s" begin="-0.1714285714285714s" repeatCount="indefinite"></animate>
  </rect>
</g><g transform="rotate(257.14285714285717 50 50)">
  <rect x="47.5" y="8" rx="14.25" ry="2.4" width="5" height="12" fill="#1846e5">
    <animate attributeName="opacity" values="1;0" keyTimes="0;1" dur="0.6s" begin="-0.14285714285714285s" repeatCount="indefinite"></animate>
  </rect>
</g><g transform="rotate(274.2857142857143 50 50)">
  <rect x="47.5" y="8" rx="14.25" ry="2.4" width="5" height="12" fill="#1846e5">
    <animate attributeName="opacity" values="1;0" keyTimes="0;1" dur="0.6s" begin="-0.11428571428571428s" repeatCount="indefinite"></animate>
  </rect>
</g><g transform="rotate(291.42857142857144 50 50)">
  <rect x="47.5" y="8" rx="14.25" ry="2.4" width="5" height="12" fill="#1846e5">
    <animate attributeName="opacity" values="1;0" keyTimes="0;1" dur="0.6s" begin="-0.0857142857142857s" repeatCount="indefinite"></animate>
  </rect>
</g><g transform="rotate(308.57142857142856 50 50)">
  <rect x="47.5" y="8" rx="14.25" ry="2.4" width="5" height="12" fill="#1846e5">
    <animate attributeName="opacity" values="1;0" keyTimes="0;1" dur="0.6s" begin="-0.05714285714285714s" repeatCount="indefinite"></animate>
  </rect>
</g><g transform="rotate(325.7142857142857 50 50)">
  <rect x="47.5" y="8" rx="14.25" ry="2.4" width="5" height="12" fill="#1846e5">
    <animate attributeName="opacity" values="1;0" keyTimes="0;1" dur="0.6s" begin="-0.02857142857142857s" repeatCount="indefinite"></animate>
  </rect>
</g><g transform="rotate(342.85714285714283 50 50)">
  <rect x="47.5" y="8" rx="14.25" ry="2.4" width="5" height="12" fill="#1846e5">
    <animate attributeName="opacity" values="1;0" keyTimes="0;1" dur="0.6s" begin="0s" repeatCount="indefinite"></animate>
  </rect>
</g></svg>